# xmcd CD database file
#
# Track frame offsets:
#	150
#	16151
#	43402
#
# Disc length: 703 seconds
#
# Revision: 0
# Processed by: cddbd v1.5PL3 Copyright (c) Steve Scherf et al.
# Submitted via: CDex 1.50
#
DISCID=1e02bd03
DTITLE=ウルフルズ - ええねん スペシャルディスク A John B CD
DYEAR=2003
DGENRE=不明
TTITLE0=Sleep John B
TTITLE1=風に吹かれてる場合じゃない
TTITLE2=(Data)
EXTD=YEAR: 2003
EXTT0=
EXTT1=
EXTT2=
PLAYORDER=
